# Blender 4.3.0
# www.blender.org
mtllib wood_block.mtl
o Cube
v -1.000000 -1.000000 1.000000
v -1.000000 1.000000 1.000000
v -1.000000 -1.000000 -1.000000
v -1.000000 1.000000 -1.000000
v 1.000000 -1.000000 1.000000
v 1.000000 1.000000 1.000000
v 1.000000 -1.000000 -1.000000
v 1.000000 1.000000 -1.000000
vn -1.0000 -0.0000 -0.0000
vn -0.0000 -0.0000 -1.0000
vn 1.0000 -0.0000 -0.0000
vn -0.0000 -0.0000 1.0000
vn -0.0000 -1.0000 -0.0000
vn -0.0000 1.0000 -0.0000
vt 0.499463 0.369090
vt 0.695295 0.369943
vt 0.699631 0.632336
vt 0.496978 0.632336
vt 0.698994 0.369716
vt 0.499687 0.368605
vt 0.498437 0.633390
vt 0.697764 0.632278
vt 0.300577 0.629835
vt 0.498470 0.633571
vt 0.497516 0.898974
vt 0.300218 0.896468
vt 0.503281 0.366329
vt 0.698397 0.369290
vt 0.697152 0.630533
vt 0.501790 0.631617
vt 0.499774 0.366921
vt 0.697490 0.366895
vt 0.698701 0.631510
vt 0.499154 0.630683
vt 0.297262 0.360904
vt 0.498829 0.366355
vt 0.499220 0.631745
vt 0.299324 0.630335
s 1
usemtl Material.001
f 1/1/1 2/2/1 4/3/1 3/4/1
f 3/5/2 4/6/2 8/7/2 7/8/2
f 7/9/3 8/10/3 6/11/3 5/12/3
f 5/13/4 6/14/4 2/15/4 1/16/4
f 3/17/5 7/18/5 5/19/5 1/20/5
f 8/21/6 4/22/6 2/23/6 6/24/6
